<?xml version="1.0" encoding="UTF-8"?>
<!DOCTYPE svg PUBLIC "-//W3C//DTD SVG 1.1//EN" "http://www.w3.org/Graphics/SVG/1.1/DTD/svg11.dtd">
<svg xmlns="http://www.w3.org/2000/svg" version="1.1" width="415px" height="72px" style="shape-rendering:geometricPrecision; text-rendering:geometricPrecision; image-rendering:optimizeQuality; fill-rule:evenodd; clip-rule:evenodd" xmlns:xlink="http://www.w3.org/1999/xlink">
<g><path style="opacity:1" fill="#fcfcfc" d="M -0.5,-0.5 C 137.833,-0.5 276.167,-0.5 414.5,-0.5C 414.5,23.5 414.5,47.5 414.5,71.5C 276.167,71.5 137.833,71.5 -0.5,71.5C -0.5,47.5 -0.5,23.5 -0.5,-0.5 Z"/></g>
<g><path style="opacity:1" fill="#dd3d4b" d="M 149.5,10.5 C 154.833,10.5 160.167,10.5 165.5,10.5C 165.5,12.1667 165.5,13.8333 165.5,15.5C 164.325,15.281 163.325,15.6143 162.5,16.5C 165.471,21.3035 168.638,25.9702 172,30.5C 175.362,25.9702 178.529,21.3035 181.5,16.5C 180.675,15.6143 179.675,15.281 178.5,15.5C 178.5,13.8333 178.5,12.1667 178.5,10.5C 183.833,10.5 189.167,10.5 194.5,10.5C 194.5,12.1667 194.5,13.8333 194.5,15.5C 192.712,15.2148 191.045,15.5481 189.5,16.5C 184.741,22.5834 180.408,28.9167 176.5,35.5C 180.435,41.9445 184.601,48.2779 189,54.5C 190.441,55.2598 191.941,55.9264 193.5,56.5C 194.429,57.6888 194.762,59.0222 194.5,60.5C 189.167,60.5 183.833,60.5 178.5,60.5C 178.441,57.9512 179.441,55.9512 181.5,54.5C 178.822,49.8119 175.656,45.4785 172,41.5C 168.344,45.4785 165.178,49.8119 162.5,54.5C 164.559,55.9512 165.559,57.9512 165.5,60.5C 160.167,60.5 154.833,60.5 149.5,60.5C 149.5,58.8333 149.5,57.1667 149.5,55.5C 151.467,55.7394 153.301,55.4061 155,54.5C 159.399,48.2779 163.565,41.9445 167.5,35.5C 163.785,28.9427 159.451,22.776 154.5,17C 152.975,15.9914 151.308,15.4914 149.5,15.5C 149.5,13.8333 149.5,12.1667 149.5,10.5 Z"/></g>
<g><path style="opacity:1" fill="#040404" d="M 14.5,17.5 C 24.1667,17.5 33.8333,17.5 43.5,17.5C 43.5,19.5 43.5,21.5 43.5,23.5C 39.8333,23.5 36.1667,23.5 32.5,23.5C 32.5,33.5 32.5,43.5 32.5,53.5C 30.1667,53.5 27.8333,53.5 25.5,53.5C 25.5,43.5 25.5,33.5 25.5,23.5C 21.8333,23.5 18.1667,23.5 14.5,23.5C 14.5,21.5 14.5,19.5 14.5,17.5 Z"/></g>
<g><path style="opacity:1" fill="#030303" d="M 51.5,17.5 C 59.1667,17.5 66.8333,17.5 74.5,17.5C 74.5,19.5 74.5,21.5 74.5,23.5C 69.1667,23.5 63.8333,23.5 58.5,23.5C 58.5,26.5 58.5,29.5 58.5,32.5C 63.1667,32.5 67.8333,32.5 72.5,32.5C 72.5,34.5 72.5,36.5 72.5,38.5C 67.8333,38.5 63.1667,38.5 58.5,38.5C 58.5,41.5 58.5,44.5 58.5,47.5C 63.8333,47.5 69.1667,47.5 74.5,47.5C 74.5,49.5 74.5,51.5 74.5,53.5C 66.8333,53.5 59.1667,53.5 51.5,53.5C 51.5,41.5 51.5,29.5 51.5,17.5 Z"/></g>
<g><path style="opacity:1" fill="#0b0b0b" d="M 92.5,17.5 C 100.144,16.4281 105.977,19.0947 110,25.5C 110.494,27.1341 110.66,28.8008 110.5,30.5C 108.167,30.5 105.833,30.5 103.5,30.5C 103.016,24.2052 99.6831,22.0385 93.5,24C 92.3333,25.1667 91.1667,26.3333 90,27.5C 88.9778,33.68 89.4778,39.68 91.5,45.5C 94.208,47.4357 97.208,47.9357 100.5,47C 101.872,45.7581 102.872,44.2581 103.5,42.5C 105.743,41.5258 108.076,41.1924 110.5,41.5C 108.38,51.0749 102.38,54.9082 92.5,53C 86.9385,51.7348 83.7718,48.2348 83,42.5C 79.7219,31.3586 82.8886,23.0253 92.5,17.5 Z"/></g>
<g><path style="opacity:1" fill="#040404" d="M 119.5,17.5 C 121.833,17.5 124.167,17.5 126.5,17.5C 126.5,22.5 126.5,27.5 126.5,32.5C 131.5,32.5 136.5,32.5 141.5,32.5C 141.5,27.5 141.5,22.5 141.5,17.5C 143.833,17.5 146.167,17.5 148.5,17.5C 148.5,29.5 148.5,41.5 148.5,53.5C 146.167,53.5 143.833,53.5 141.5,53.5C 141.5,48.5 141.5,43.5 141.5,38.5C 136.5,38.5 131.5,38.5 126.5,38.5C 126.5,43.5 126.5,48.5 126.5,53.5C 124.167,53.5 121.833,53.5 119.5,53.5C 119.5,41.5 119.5,29.5 119.5,17.5 Z"/></g>
<g><path style="opacity:1" fill="#080808" d="M 218.5,27.5 C 216.721,29.3435 214.388,30.0102 211.5,29.5C 210.44,23.9047 207.107,22.0714 201.5,24C 198.114,26.8692 196.781,30.5359 197.5,35C 196.161,43.9867 199.828,47.9867 208.5,47C 210.607,45.7365 211.607,43.9032 211.5,41.5C 213.833,41.5 216.167,41.5 218.5,41.5C 218.082,47.8191 214.749,51.6524 208.5,53C 196.181,53.8493 190.181,48.016 190.5,35.5C 191.123,19.8563 198.789,14.6897 213.5,20C 216.2,21.8567 217.866,24.3567 218.5,27.5 Z"/></g>
<g><path style="opacity:1" fill="#040404" d="M 227.5,17.5 C 229.833,17.5 232.167,17.5 234.5,17.5C 234.5,22.5 234.5,27.5 234.5,32.5C 239.5,32.5 244.5,32.5 249.5,32.5C 249.5,27.5 249.5,22.5 249.5,17.5C 251.833,17.5 254.167,17.5 256.5,17.5C 256.5,29.5 256.5,41.5 256.5,53.5C 254.167,53.5 251.833,53.5 249.5,53.5C 249.5,48.5 249.5,43.5 249.5,38.5C 244.5,38.5 239.5,38.5 234.5,38.5C 234.5,43.5 234.5,48.5 234.5,53.5C 232.167,53.5 229.833,53.5 227.5,53.5C 227.5,41.5 227.5,29.5 227.5,17.5 Z"/></g>
<g><path style="opacity:1" fill="#0c0c0c" d="M 276.5,17.5 C 279.119,17.2317 281.619,17.565 284,18.5C 288.473,30.088 292.64,41.7547 296.5,53.5C 290.257,55.2013 287.257,52.8679 287.5,46.5C 282.786,46.1734 278.12,46.5067 273.5,47.5C 272.289,52.8325 268.955,54.6658 263.5,53C 268.327,41.3516 272.661,29.5183 276.5,17.5 Z"/></g>
<g><path style="opacity:1" fill="#060606" d="M 312.5,31.5 C 312.44,30.9569 312.107,30.6236 311.5,30.5C 310.503,38.1378 310.169,45.8045 310.5,53.5C 308.5,53.5 306.5,53.5 304.5,53.5C 304.5,41.5 304.5,29.5 304.5,17.5C 307.119,17.2317 309.619,17.565 312,18.5C 316.333,25.8333 320.667,33.1667 325,40.5C 325.5,32.8406 325.666,25.1739 325.5,17.5C 327.833,17.5 330.167,17.5 332.5,17.5C 332.5,29.5 332.5,41.5 332.5,53.5C 329.881,53.7683 327.381,53.435 325,52.5C 320.822,45.4723 316.655,38.4723 312.5,31.5 Z"/></g>
<g><path style="opacity:1" fill="#0b0b0b" d="M 370.5,26.5 C 369.082,28.3079 367.082,28.9746 364.5,28.5C 362.366,23.8887 358.699,22.3887 353.5,24C 351.951,25.214 350.785,26.714 350,28.5C 348.831,34.6732 349.664,40.5065 352.5,46C 355.702,47.4833 359.036,47.8166 362.5,47C 363.435,44.6194 363.768,42.1194 363.5,39.5C 361.5,39.5 359.5,39.5 357.5,39.5C 357.5,37.8333 357.5,36.1667 357.5,34.5C 362.167,34.5 366.833,34.5 371.5,34.5C 371.666,39.1785 371.499,43.8452 371,48.5C 364.024,53.8678 356.524,54.7011 348.5,51C 345.246,48.6581 343.412,45.4915 343,41.5C 339.842,23.6621 347.009,16.1621 364.5,19C 367.817,20.4802 369.817,22.9802 370.5,26.5 Z"/></g>
<g><path style="opacity:1" fill="#090909" d="M 380.5,17.5 C 388.5,17.5 396.5,17.5 404.5,17.5C 404.5,19.5 404.5,21.5 404.5,23.5C 398.833,23.5 393.167,23.5 387.5,23.5C 387.5,26.5 387.5,29.5 387.5,32.5C 392.167,32.5 396.833,32.5 401.5,32.5C 401.5,34.5 401.5,36.5 401.5,38.5C 396.833,38.5 392.167,38.5 387.5,38.5C 387.5,41.5 387.5,44.5 387.5,47.5C 393.167,47.5 398.833,47.5 404.5,47.5C 404.5,49.5 404.5,51.5 404.5,53.5C 396.5,53.5 388.5,53.5 380.5,53.5C 380.5,41.5 380.5,29.5 380.5,17.5 Z"/></g>
<g><path style="opacity:1" fill="#727272" d="M 370.5,26.5 C 371.404,27.209 371.737,28.209 371.5,29.5C 368.941,29.8016 366.607,29.4682 364.5,28.5C 367.082,28.9746 369.082,28.3079 370.5,26.5 Z"/></g>
<g><path style="opacity:1" fill="#757575" d="M 218.5,27.5 C 219.404,28.209 219.737,29.209 219.5,30.5C 216.615,30.8064 213.948,30.4731 211.5,29.5C 214.388,30.0102 216.721,29.3435 218.5,27.5 Z"/></g>
<g><path style="opacity:1" fill="#e8e8e8" d="M 279.5,27.5 C 280.79,28.0577 281.623,29.0577 282,30.5C 282.943,33.824 283.776,37.1574 284.5,40.5C 281.482,40.6646 278.482,40.498 275.5,40C 277.257,35.9811 278.591,31.8145 279.5,27.5 Z"/></g>
<g><path style="opacity:1" fill="#414141" d="M 312.5,31.5 C 311.833,38.8333 311.167,46.1667 310.5,53.5C 310.169,45.8045 310.503,38.1378 311.5,30.5C 312.107,30.6236 312.44,30.9569 312.5,31.5 Z"/></g>
</svg>
