<svg id="svg" xmlns="http://www.w3.org/2000/svg" xmlns:xlink="http://www.w3.org/1999/xlink" width="400px" height="94.68267581475129px" viewBox="0, 0, 400,94.68267581475129" transform="rotate(0) scale(1, 1)"><g id="svgg"><path id="path0" d="M81.149 18.532 C 73.979 20.148,72.226 24.437,67.589 51.711 C 63.441 76.105,64.225 80.278,72.955 80.272 C 79.244 80.267,82.289 77.260,85.010 68.367 C 87.028 61.771,87.022 61.750,83.107 61.750 L 79.764 61.750 79.302 64.636 C 77.607 75.238,70.322 77.531,71.707 67.027 C 73.695 51.953,78.517 27.976,80.055 25.516 C 82.343 21.858,84.708 23.707,84.936 29.331 L 85.137 34.305 88.115 34.305 C 91.509 34.305,91.913 33.631,91.929 27.937 C 91.950 20.483,87.956 16.998,81.149 18.532 M165.239 18.533 C 158.940 19.643,156.717 23.784,153.383 40.625 C 146.662 74.574,147.133 80.279,156.660 80.272 C 163.695 80.267,167.787 75.301,169.836 64.281 L 170.322 61.668 167.030 61.880 L 163.738 62.093 162.812 66.185 C 161.297 72.878,157.775 75.831,155.771 72.087 C 154.275 69.291,161.591 27.957,164.128 24.871 C 166.776 21.652,169.670 25.199,169.001 30.844 L 168.591 34.305 171.701 34.305 C 175.378 34.305,175.644 33.872,175.641 27.903 C 175.638 22.821,173.934 19.466,171.033 18.829 C 169.984 18.599,168.816 18.338,168.439 18.250 C 168.062 18.162,166.622 18.289,165.239 18.533 M349.291 18.646 C 342.145 19.900,340.101 24.670,335.549 50.719 C 330.980 76.867,331.877 80.751,342.349 80.159 C 350.495 79.699,353.103 75.854,356.435 59.401 C 358.921 47.122,359.249 48.027,352.316 48.027 C 347.222 48.027,346.483 48.180,346.474 49.228 C 346.469 49.889,346.279 51.123,346.051 51.973 C 345.678 53.365,345.880 53.516,348.119 53.516 C 351.015 53.516,350.989 53.376,349.526 61.087 C 347.673 70.856,346.128 73.413,342.082 73.413 C 338.674 73.413,338.814 69.462,343.053 46.071 C 346.738 25.732,347.413 24.014,351.723 24.014 C 354.438 24.014,355.073 25.558,354.558 30.912 L 354.232 34.305 357.466 34.305 L 360.700 34.305 361.082 30.601 C 362.058 21.146,358.072 17.105,349.291 18.646 M22.956 21.098 C 21.990 25.687,21.791 25.386,25.793 25.386 C 30.339 25.386,30.429 22.109,25.043 52.726 C 22.590 66.670,20.583 78.418,20.583 78.833 C 20.583 79.280,21.962 79.588,23.965 79.588 L 27.347 79.588 28.057 75.986 C 28.448 74.005,30.480 62.504,32.573 50.429 C 34.666 38.353,36.536 27.779,36.727 26.930 C 37.037 25.560,37.498 25.386,40.823 25.386 C 44.875 25.386,44.553 25.721,45.603 20.412 C 45.822 19.307,44.938 19.211,34.597 19.211 L 23.354 19.211 22.956 21.098 M50.772 19.726 C 50.772 20.009,48.456 33.362,45.626 49.400 C 42.796 65.437,40.481 78.791,40.480 79.074 C 40.480 79.357,44.301 79.588,48.971 79.588 L 57.461 79.588 57.890 77.444 C 58.826 72.768,58.788 72.727,53.508 72.727 L 48.697 72.727 49.111 70.154 C 49.339 68.739,50.194 63.877,51.012 59.348 L 52.499 51.115 56.709 50.913 C 60.384 50.736,60.971 50.518,61.325 49.197 C 62.298 45.571,62.026 45.283,57.633 45.283 C 55.369 45.283,53.518 45.206,53.519 45.111 C 53.521 45.017,54.293 40.633,55.234 35.370 C 56.176 30.106,56.947 25.552,56.947 25.250 C 56.947 24.947,59.224 24.700,62.007 24.700 L 67.067 24.700 67.496 22.556 C 67.732 21.377,67.925 20.142,67.925 19.811 C 67.925 19.481,64.065 19.211,59.348 19.211 C 54.631 19.211,50.772 19.443,50.772 19.726 M100.142 19.383 C 100.125 19.477,97.714 33.062,94.783 49.571 L 89.454 79.588 93.097 79.588 C 95.101 79.588,96.742 79.357,96.743 79.074 C 96.744 78.791,97.824 72.539,99.142 65.180 C 100.461 57.822,101.540 51.569,101.542 51.286 C 101.543 51.003,103.396 50.772,105.660 50.772 C 107.925 50.772,109.776 51.003,109.775 51.286 C 109.774 51.569,108.694 57.822,107.376 65.180 C 106.057 72.539,104.978 78.791,104.976 79.074 C 104.971 80.263,111.736 79.611,112.097 78.388 C 112.291 77.727,114.630 64.683,117.294 49.400 C 119.958 34.117,122.261 21.072,122.411 20.412 C 122.645 19.386,122.160 19.211,119.078 19.211 L 115.471 19.211 113.190 32.247 L 110.908 45.283 106.912 45.283 C 104.172 45.283,102.916 45.013,102.916 44.425 C 102.917 43.954,103.838 38.473,104.964 32.247 C 107.549 17.953,107.680 19.211,103.602 19.211 C 101.715 19.211,100.158 19.288,100.142 19.383 M129.684 22.470 C 129.689 24.262,129.998 30.970,130.370 37.376 L 131.046 49.023 126.822 58.988 C 124.499 64.469,121.578 71.346,120.330 74.271 L 118.062 79.588 121.641 79.588 L 125.220 79.588 128.944 68.954 C 130.992 63.105,132.920 58.319,133.229 58.319 C 133.538 58.319,133.791 63.105,133.791 68.954 L 133.791 79.588 137.399 79.588 L 141.006 79.588 140.123 63.293 L 139.239 46.998 145.040 33.276 L 150.840 19.554 147.709 19.341 C 143.702 19.068,144.060 18.533,140.336 30.360 C 136.205 43.480,135.546 43.398,136.181 29.846 L 136.680 19.211 133.177 19.211 L 129.674 19.211 129.684 22.470 M183.594 21.098 C 182.615 25.815,173.585 77.666,173.585 78.571 C 173.585 80.449,180.214 79.955,180.648 78.045 C 180.841 77.196,182.004 70.712,183.232 63.636 L 185.466 50.772 189.474 50.772 C 191.697 50.772,193.482 51.078,193.482 51.460 C 193.482 51.839,192.401 58.232,191.081 65.668 C 189.760 73.104,188.679 79.294,188.679 79.424 C 188.679 79.554,190.287 79.567,192.253 79.453 L 195.827 79.245 200.786 51.115 C 203.513 35.643,205.911 22.136,206.114 21.098 C 206.480 19.230,206.446 19.211,202.849 19.211 L 199.214 19.211 197.651 28.302 C 196.792 33.302,195.778 39.168,195.398 41.338 L 194.708 45.283 190.664 45.283 C 187.881 45.283,186.624 45.016,186.632 44.425 C 186.637 43.954,187.564 38.473,188.689 32.247 C 191.265 18.002,191.389 19.211,187.362 19.211 C 184.231 19.211,183.957 19.348,183.594 21.098 M250.214 22.390 C 247.891 26.236,246.962 23.875,258.971 44.631 C 264.461 54.121,268.954 62.155,268.954 62.485 C 268.954 62.815,264.470 63.171,258.989 63.275 L 249.025 63.465 246.968 67.067 L 244.912 70.669 263.850 70.669 L 282.788 70.669 281.443 68.439 C 280.704 67.213,274.010 55.635,266.569 42.710 C 259.127 29.786,252.835 19.211,252.586 19.211 C 252.338 19.211,251.270 20.641,250.214 22.390 M309.434 19.574 C 309.434 19.774,307.118 33.072,304.288 49.125 C 301.458 65.178,299.142 78.599,299.142 78.950 C 299.142 79.482,305.935 79.941,306.037 79.417 C 306.055 79.322,307.404 71.835,309.034 62.779 C 310.664 53.722,312.171 46.775,312.381 47.341 C 312.702 48.202,316.321 77.497,316.301 79.074 C 316.298 79.357,317.839 79.588,319.726 79.588 C 321.612 79.588,323.156 79.357,323.156 79.074 C 323.156 78.791,325.472 65.437,328.302 49.400 C 331.132 33.362,333.447 20.009,333.447 19.726 C 333.448 19.443,331.925 19.211,330.063 19.211 C 326.004 19.211,326.771 17.101,323.081 38.422 C 321.481 47.667,319.978 55.464,319.742 55.747 C 319.505 56.031,318.583 47.926,317.693 37.737 L 316.073 19.211 312.754 19.211 C 310.928 19.211,309.434 19.374,309.434 19.574 M370.183 20.069 C 370.034 20.540,367.722 33.585,365.045 49.057 C 362.369 64.528,360.060 77.727,359.914 78.388 C 359.672 79.481,360.408 79.588,368.114 79.588 C 377.401 79.588,376.705 79.925,377.705 74.957 L 378.154 72.727 373.296 72.727 C 367.531 72.727,367.819 73.824,370.157 60.756 C 371.099 55.492,371.870 51.093,371.870 50.979 C 371.870 50.865,373.732 50.772,376.008 50.772 C 378.720 50.772,380.237 50.476,380.410 49.914 C 380.556 49.443,380.860 48.208,381.088 47.170 L 381.501 45.283 377.372 45.283 C 372.455 45.283,372.625 46.072,374.860 33.619 L 376.400 25.043 381.502 24.700 L 386.603 24.357 387.019 21.784 L 387.434 19.211 378.944 19.211 C 372.755 19.211,370.381 19.443,370.183 20.069 M232.580 53.002 C 224.919 66.304,218.191 77.897,217.630 78.764 L 216.608 80.342 221.251 80.137 L 225.894 79.931 236.275 61.926 C 241.984 52.023,246.815 43.919,247.010 43.916 C 247.206 43.913,249.563 47.693,252.250 52.316 L 257.134 60.720 261.328 60.925 C 263.636 61.037,265.523 60.925,265.523 60.675 C 265.523 59.886,247.407 28.816,246.948 28.816 C 246.706 28.816,240.241 39.700,232.580 53.002 M237.550 63.741 C 232.558 72.371,228.473 79.622,228.473 79.853 C 228.473 80.085,241.929 80.274,258.376 80.274 L 288.278 80.274 286.199 76.672 L 284.119 73.070 262.814 72.889 C 251.097 72.789,241.509 72.599,241.509 72.466 C 241.509 72.334,243.706 68.441,246.391 63.816 L 251.273 55.406 249.727 52.574 C 246.831 47.268,247.360 46.782,237.550 63.741 " stroke="none" fill="#dc3545" fill-rule="evenodd"/></g></svg>